<mxfile host="app.diagrams.net" modified="2023-09-05T14:54:38.907Z" agent="Mozilla/5.0 (Windows NT 10.0; Win64; x64) AppleWebKit/537.36 (KHTML, like Gecko) Chrome/116.0.0.0 Safari/537.36" etag="BG7BfSxwn3XvHnSSOjt3" version="21.7.2" type="device">
  <diagram name="Page-1" id="XYO5vYSn_DiX1Q8LKnJ9">
    <mxGraphModel dx="1434" dy="758" grid="1" gridSize="10" guides="1" tooltips="1" connect="1" arrows="1" fold="1" page="1" pageScale="1" pageWidth="827" pageHeight="1169" math="0" shadow="0">
      <root>
        <mxCell id="0" />
        <mxCell id="1" parent="0" />
        <mxCell id="Eeag6ZIdwhuFiJRsn71o-1" value="&lt;font style=&quot;font-size: 25px;&quot;&gt;Front&lt;/font&gt;" style="rounded=0;whiteSpace=wrap;html=1;" vertex="1" parent="1">
          <mxGeometry x="260" y="40" width="240" height="60" as="geometry" />
        </mxCell>
        <mxCell id="Eeag6ZIdwhuFiJRsn71o-2" value="&lt;font style=&quot;font-size: 18px;&quot;&gt;GateWay&lt;/font&gt;" style="ellipse;whiteSpace=wrap;html=1;" vertex="1" parent="1">
          <mxGeometry x="325" y="160" width="110" height="70" as="geometry" />
        </mxCell>
        <mxCell id="Eeag6ZIdwhuFiJRsn71o-3" value="&lt;font style=&quot;font-size: 18px;&quot;&gt;Comment&lt;/font&gt;" style="ellipse;whiteSpace=wrap;html=1;" vertex="1" parent="1">
          <mxGeometry x="325" y="270" width="110" height="70" as="geometry" />
        </mxCell>
        <mxCell id="Eeag6ZIdwhuFiJRsn71o-4" value="&lt;span style=&quot;font-size: 18px;&quot;&gt;CarRide&lt;/span&gt;" style="ellipse;whiteSpace=wrap;html=1;" vertex="1" parent="1">
          <mxGeometry x="500" y="270" width="110" height="70" as="geometry" />
        </mxCell>
        <mxCell id="Eeag6ZIdwhuFiJRsn71o-5" value="&lt;font style=&quot;font-size: 18px;&quot;&gt;Login&lt;/font&gt;" style="ellipse;whiteSpace=wrap;html=1;" vertex="1" parent="1">
          <mxGeometry x="150" y="270" width="110" height="70" as="geometry" />
        </mxCell>
        <mxCell id="Eeag6ZIdwhuFiJRsn71o-6" value="" style="endArrow=classic;startArrow=classic;html=1;rounded=0;exitX=0.5;exitY=0;exitDx=0;exitDy=0;entryX=0;entryY=0.5;entryDx=0;entryDy=0;" edge="1" parent="1" source="Eeag6ZIdwhuFiJRsn71o-5" target="Eeag6ZIdwhuFiJRsn71o-2">
          <mxGeometry width="50" height="50" relative="1" as="geometry">
            <mxPoint x="270" y="270" as="sourcePoint" />
            <mxPoint x="320" y="220" as="targetPoint" />
          </mxGeometry>
        </mxCell>
        <mxCell id="Eeag6ZIdwhuFiJRsn71o-7" value="" style="endArrow=classic;startArrow=classic;html=1;rounded=0;exitX=0.5;exitY=0;exitDx=0;exitDy=0;entryX=0.5;entryY=1;entryDx=0;entryDy=0;" edge="1" parent="1" source="Eeag6ZIdwhuFiJRsn71o-3" target="Eeag6ZIdwhuFiJRsn71o-2">
          <mxGeometry width="50" height="50" relative="1" as="geometry">
            <mxPoint x="255" y="280" as="sourcePoint" />
            <mxPoint x="335" y="205" as="targetPoint" />
          </mxGeometry>
        </mxCell>
        <mxCell id="Eeag6ZIdwhuFiJRsn71o-8" value="" style="endArrow=classic;startArrow=classic;html=1;rounded=0;exitX=0.5;exitY=0;exitDx=0;exitDy=0;entryX=1;entryY=0.5;entryDx=0;entryDy=0;" edge="1" parent="1" source="Eeag6ZIdwhuFiJRsn71o-4" target="Eeag6ZIdwhuFiJRsn71o-2">
          <mxGeometry width="50" height="50" relative="1" as="geometry">
            <mxPoint x="550" y="270" as="sourcePoint" />
            <mxPoint x="670" y="195" as="targetPoint" />
          </mxGeometry>
        </mxCell>
        <mxCell id="Eeag6ZIdwhuFiJRsn71o-9" value="&lt;font style=&quot;font-size: 35px;&quot;&gt;BDD&lt;/font&gt;" style="rounded=0;whiteSpace=wrap;html=1;" vertex="1" parent="1">
          <mxGeometry x="160" y="400" width="440" height="60" as="geometry" />
        </mxCell>
        <mxCell id="Eeag6ZIdwhuFiJRsn71o-10" value="" style="endArrow=classic;startArrow=classic;html=1;rounded=0;exitX=0.25;exitY=0;exitDx=0;exitDy=0;entryX=0.5;entryY=1;entryDx=0;entryDy=0;" edge="1" parent="1" source="Eeag6ZIdwhuFiJRsn71o-9" target="Eeag6ZIdwhuFiJRsn71o-5">
          <mxGeometry width="50" height="50" relative="1" as="geometry">
            <mxPoint x="215" y="280" as="sourcePoint" />
            <mxPoint x="335" y="205" as="targetPoint" />
          </mxGeometry>
        </mxCell>
        <mxCell id="Eeag6ZIdwhuFiJRsn71o-11" value="" style="endArrow=classic;startArrow=classic;html=1;rounded=0;exitX=0.5;exitY=0;exitDx=0;exitDy=0;entryX=0.5;entryY=1;entryDx=0;entryDy=0;" edge="1" parent="1" source="Eeag6ZIdwhuFiJRsn71o-9" target="Eeag6ZIdwhuFiJRsn71o-3">
          <mxGeometry width="50" height="50" relative="1" as="geometry">
            <mxPoint x="280" y="410" as="sourcePoint" />
            <mxPoint x="215" y="350" as="targetPoint" />
          </mxGeometry>
        </mxCell>
        <mxCell id="Eeag6ZIdwhuFiJRsn71o-12" value="" style="endArrow=classic;startArrow=classic;html=1;rounded=0;exitX=0.75;exitY=0;exitDx=0;exitDy=0;entryX=0.5;entryY=1;entryDx=0;entryDy=0;" edge="1" parent="1" source="Eeag6ZIdwhuFiJRsn71o-9" target="Eeag6ZIdwhuFiJRsn71o-4">
          <mxGeometry width="50" height="50" relative="1" as="geometry">
            <mxPoint x="390" y="410" as="sourcePoint" />
            <mxPoint x="390" y="350" as="targetPoint" />
          </mxGeometry>
        </mxCell>
        <mxCell id="Eeag6ZIdwhuFiJRsn71o-13" value="" style="endArrow=classic;startArrow=classic;html=1;rounded=0;entryX=0.5;entryY=1;entryDx=0;entryDy=0;" edge="1" parent="1" source="Eeag6ZIdwhuFiJRsn71o-2" target="Eeag6ZIdwhuFiJRsn71o-1">
          <mxGeometry width="50" height="50" relative="1" as="geometry">
            <mxPoint x="380" y="160" as="sourcePoint" />
            <mxPoint x="430" y="120" as="targetPoint" />
          </mxGeometry>
        </mxCell>
      </root>
    </mxGraphModel>
  </diagram>
</mxfile>
